<?xml version="1.0" encoding="UTF-8" standalone="no"?>
<!DOCTYPE svg PUBLIC "-//W3C//DTD SVG 1.1//EN" "http://www.w3.org/Graphics/SVG/1.1/DTD/svg11.dtd">
<svg width="20px" height="20px" viewBox="0 0 16 16" version="1.1" xmlns="http://www.w3.org/2000/svg" xmlnsXlink="http://www.w3.org/1999/xlink" xmlSpace="preserve" xmlnsSerif="http://www.serif.com/" style="fill-rule:evenodd;clip-rule:evenodd;stroke-linejoin:round;stroke-miterlimit:2;">
    <g transform="matrix(1.06517,0,0,1.0773,-1.04386,-1.23674)">
        <ellipse cx="8.49" cy="8.574" rx="7.51" ry="7.426" style="fill:white;"/>
    </g>
    <g transform="matrix(0.986111,0,0,0.99734,-0.372081,-0.551192)">
        <ellipse cx="8.49" cy="8.574" rx="7.51" ry="7.426" style="fill:rgb(252,167,18);"/>
    </g>
    <g transform="matrix(0.613812,0,0,0.613812,3.21954,2.79426)">
        <circle cx="7.788" cy="8.481" r="5.003" style="fill:white;"/>
    </g>
    <g transform="matrix(1.90873,-1.90873,0.940287,0.940287,-12.3558,16.3717)">
        <path d="M7.748,1.901C7.719,1.773 7.382,1.773 7.354,1.901C7.288,2.199 7.288,3.389 7.354,3.687C7.382,3.815 7.719,3.815 7.748,3.687C7.814,3.389 7.814,2.199 7.748,1.901Z" style="fill:white;"/>
    </g>
    <g transform="matrix(2.69935,0,-1.08265e-15,1.32977,-12.3135,-0.474063)">
        <path d="M7.748,1.901C7.719,1.773 7.382,1.773 7.354,1.901C7.288,2.199 7.288,3.389 7.354,3.687C7.382,3.815 7.719,3.815 7.748,3.687C7.814,3.389 7.814,2.199 7.748,1.901Z" style="fill:white;"/>
    </g>
    <g transform="matrix(0,-2.69935,1.32977,1.08265e-15,-0.474063,28.3135)">
        <path d="M7.748,1.901C7.719,1.773 7.382,1.773 7.354,1.901C7.288,2.199 7.288,3.389 7.354,3.687C7.382,3.815 7.719,3.815 7.748,3.687C7.814,3.389 7.814,2.199 7.748,1.901Z" style="fill:white;"/>
    </g>
    <g transform="matrix(-1.90873,-1.90873,0.940287,-0.940287,16.3717,28.3558)">
        <path d="M7.748,1.901C7.719,1.773 7.382,1.773 7.354,1.901C7.288,2.199 7.288,3.389 7.354,3.687C7.382,3.815 7.719,3.815 7.748,3.687C7.814,3.389 7.814,2.199 7.748,1.901Z" style="fill:white;"/>
    </g>
    <g transform="matrix(-2.69935,-3.60882e-16,1.17287e-15,-1.32977,28.3135,16.4741)">
        <path d="M7.748,1.901C7.719,1.773 7.382,1.773 7.354,1.901C7.288,2.199 7.288,3.389 7.354,3.687C7.382,3.815 7.719,3.815 7.748,3.687C7.814,3.389 7.814,2.199 7.748,1.901Z" style="fill:white;"/>
    </g>
    <g transform="matrix(3.60882e-16,2.69935,-1.32977,-9.92427e-16,16.4741,-12.3135)">
        <path d="M7.748,1.901C7.719,1.773 7.382,1.773 7.354,1.901C7.288,2.199 7.288,3.389 7.354,3.687C7.382,3.815 7.719,3.815 7.748,3.687C7.814,3.389 7.814,2.199 7.748,1.901Z" style="fill:white;"/>
    </g>
    <g transform="matrix(1.90873,1.90873,-0.940287,0.940287,-0.371711,-12.3558)">
        <path d="M7.748,1.901C7.719,1.773 7.382,1.773 7.354,1.901C7.288,2.199 7.288,3.389 7.354,3.687C7.382,3.815 7.719,3.815 7.748,3.687C7.814,3.389 7.814,2.199 7.748,1.901Z" style="fill:white;"/>
    </g>
    <g transform="matrix(-1.90873,1.90873,-0.940287,-0.940287,28.3558,-0.371711)">
        <path d="M7.748,1.901C7.719,1.773 7.382,1.773 7.354,1.901C7.288,2.199 7.288,3.389 7.354,3.687C7.382,3.815 7.719,3.815 7.748,3.687C7.814,3.389 7.814,2.199 7.748,1.901Z" style="fill:white;"/>
    </g>
</svg>
