<svg className='sun' width="20px" height="20px" viewBox="0 0 32 32" version="1.1" style="fill-rule:evenodd;clip-rule:evenodd;stroke-linejoin:round;stroke-miterlimit:2;">
    <g transform="matrix(1.61551,0,0,1.61551,3.40333,2.31367)">
        <circle cx="7.788" cy="8.481" r="5.003" style="fill:white;"/>
    </g>
    <g transform="matrix(5.02364,-5.02364,2.47477,2.47477,-37.5901,38.0486)">
        <path d="M7.748,1.901C7.719,1.773 7.382,1.773 7.354,1.901C7.288,2.199 7.288,3.389 7.354,3.687C7.382,3.815 7.719,3.815 7.748,3.687C7.814,3.389 7.814,2.199 7.748,1.901Z" style="fill:white;"/>
    </g>
    <g transform="matrix(7.1045,0,-2.84946e-15,3.49986,-37.4785,-6.28836)">
        <path d="M7.748,1.901C7.719,1.773 7.382,1.773 7.354,1.901C7.288,2.199 7.288,3.389 7.354,3.687C7.382,3.815 7.719,3.815 7.748,3.687C7.814,3.389 7.814,2.199 7.748,1.901Z" style="fill:white;"/>
    </g>
    <g transform="matrix(0,-7.1045,3.49986,2.84946e-15,-6.318,69.4785)">
        <path d="M7.748,1.901C7.719,1.773 7.382,1.773 7.354,1.901C7.288,2.199 7.288,3.389 7.354,3.687C7.382,3.815 7.719,3.815 7.748,3.687C7.814,3.389 7.814,2.199 7.748,1.901Z" style="fill:white;"/>
    </g>
    <g transform="matrix(-5.02364,-5.02364,2.47477,-2.47477,38.019,69.5901)">
        <path d="M7.748,1.901C7.719,1.773 7.382,1.773 7.354,1.901C7.288,2.199 7.288,3.389 7.354,3.687C7.382,3.815 7.719,3.815 7.748,3.687C7.814,3.389 7.814,2.199 7.748,1.901Z" style="fill:white;"/>
    </g>
    <g transform="matrix(-7.1045,-9.49819e-16,3.08691e-15,-3.49986,69.4488,38.318)">
        <path d="M7.748,1.901C7.719,1.773 7.382,1.773 7.354,1.901C7.288,2.199 7.288,3.389 7.354,3.687C7.382,3.815 7.719,3.815 7.748,3.687C7.814,3.389 7.814,2.199 7.748,1.901Z" style="fill:white;"/>
    </g>
    <g transform="matrix(9.49819e-16,7.1045,-3.49986,-2.612e-15,38.2884,-37.4488)">
        <path d="M7.748,1.901C7.719,1.773 7.382,1.773 7.354,1.901C7.288,2.199 7.288,3.389 7.354,3.687C7.382,3.815 7.719,3.815 7.748,3.687C7.814,3.389 7.814,2.199 7.748,1.901Z" style="fill:white;"/>
    </g>
    <g transform="matrix(5.02364,5.02364,-2.47477,2.47477,-6.04862,-37.5604)">
        <path d="M7.748,1.901C7.719,1.773 7.382,1.773 7.354,1.901C7.288,2.199 7.288,3.389 7.354,3.687C7.382,3.815 7.719,3.815 7.748,3.687C7.814,3.389 7.814,2.199 7.748,1.901Z" style="fill:white;"/>
    </g>
    <g transform="matrix(-5.02364,5.02364,-2.47477,-2.47477,69.5604,-6.01897)">
        <path d="M7.748,1.901C7.719,1.773 7.382,1.773 7.354,1.901C7.288,2.199 7.288,3.389 7.354,3.687C7.382,3.815 7.719,3.815 7.748,3.687C7.814,3.389 7.814,2.199 7.748,1.901Z" style="fill:white;"/>
    </g>
</svg>